<?xml version="1.0" encoding="UTF-8"?>
<!DOCTYPE svg PUBLIC "-//W3C//DTD SVG 1.1//EN" "http://www.w3.org/Graphics/SVG/1.1/DTD/svg11.dtd">
<!-- Creator: CorelDRAW -->
<svg xmlns="http://www.w3.org/2000/svg" xml:space="preserve" width="127mm" height="110.034mm" version="1.1" style="shape-rendering:geometricPrecision; text-rendering:geometricPrecision; image-rendering:optimizeQuality; fill-rule:evenodd; clip-rule:evenodd"
viewBox="0 0 16287.48 14111.64"
 xmlns:xlink="http://www.w3.org/1999/xlink"
 xmlns:xodm="http://www.corel.com/coreldraw/odm/2003">
 <defs>
  <style type="text/css">
   <![CDATA[
    .fil0 {fill:#FEFEFE}
   ]]>
  </style>
 </defs>
 <g id="Layer_x0020_1">
  <metadata id="CorelCorpID_0Corel-Layer"/>
  <g id="_2153664604576">
   <path class="fil0" d="M12241.76 14104.6c112.9,10.52 861.06,-37.31 925.71,-85.7 82.57,-61.79 1250.2,-2750.1 1342.11,-2973.68 314.22,-764.38 1672.57,-3620.05 1777.9,-3986.48l-877.59 -1971.9c-624.76,-1368.21 -1145.36,-2658.51 -1771.03,-3991 -66.6,-141.83 -409.52,-942.66 -448.34,-989.52 -84.04,-101.44 -803.13,-108.99 -947.26,-105.74 272.78,881.15 2761.34,6883.49 2764.33,7062.65 0.28,17.33 -2531.61,6523.44 -2765.83,7041.37z"/>
   <path class="fil0" d="M3092.79 55.17l-3092.79 6986.28c72.73,313.63 2693.27,5977.23 3059.83,6977.29l975.65 92.9 -2779.9 -7049.23 1398.49 -3518.4c235.35,-574.56 462.47,-1157.4 696.68,-1737.44 159.58,-395.2 599.48,-1426.95 694.98,-1802.1l-952.93 50.71z"/>
  </g>
  <path class="fil0" d="M11413.79 5249.33c283.22,157.37 994.75,1523.35 1166.47,1961.87l-1166.65 -8.07 0.18 -1953.8zm-1985.42 -1443.38c230.62,53.17 517.78,202.73 729.47,329.6 210.34,126.07 436.52,335.42 621.4,438.26l0.5 2634.12 -1349.73 20.7 -1.64 -3422.68zm-1867.58 -141.71c415.48,-41.03 820.68,-71.27 1236.37,2.06l0.23 3556.88 -1236.44 3.66 -0.17 -3562.6zm-1978.89 912.98c216.43,-135.07 414.27,-328.31 634.94,-451.23 241.97,-134.78 455.09,-218.97 709.51,-311.62l0.76 3412.62 -1348.81 -16.15 3.6 -2633.63zm-1817.32 2633.88c132.84,-431.77 918.42,-1752.07 1179.89,-1962.74l5.13 1961.81 -1185.02 0.94zm-902.45 -35.51l-452.12 2.19 3.12 1226.27c391.52,47.17 2385.01,10.3 2976.94,19.81 434.67,6.96 880.1,-151.33 1316.94,-207.38 984.85,-126.36 1851.8,-149.17 2840.47,-9.35 415.22,58.72 943.16,222.41 1337.91,213.89 992.41,-21.43 1998.2,2.65 2992.11,6.57l-0.32 -1216.35 -443.03 1.12c-286.81,-1042.26 -1241.5,-2504.01 -1924.55,-3184.33 -994.86,-990.91 -2086.04,-1402.52 -3345.28,-1398.52 -2195.13,6.96 -3742.31,1399.48 -4873.34,3649.92 -106.91,212.72 -312.18,763.68 -428.84,896.16z"/>
  <polygon class="fil0" points="4220.3,10732.91 5327.97,10732.58 5327.18,9106.93 4220.23,9111.82 "/>
  <polygon class="fil0" points="11030.5,10732.92 12137.2,10732.29 12133.97,9113.45 11030.57,9104.85 "/>
 </g>
</svg>
